Coordinates
version=1
nRows=15
nColumns=34
inDegrees=yes

Units are S.I. units (second, meters, Newtons, ...)
If the header above contains a line with 'inDegrees', this indicates whether rotational values are in degrees (yes) or radians (no).

endheader
time	pelvis_tilt	pelvis_list	pelvis_rotation	pelvis_tx	pelvis_ty	pelvis_tz	hip_flexion_r	hip_adduction_r	hip_rotation_r	knee_angle_r	ankle_angle_r	subtalar_angle_r	mtp_angle_r	hip_flexion_l	hip_adduction_l	hip_rotation_l	knee_angle_l	ankle_angle_l	subtalar_angle_l	mtp_angle_l	lumbar_extension	lumbar_bending	lumbar_rotation	arm_flex_r	arm_add_r	arm_rot_r	elbow_flex_r	pro_sup_r	arm_flex_l	arm_add_l	arm_rot_l	elbow_flex_l	pro_sup_l
      5.46666670	      0.65507659	     -2.62752539	     10.68701652	      0.12013503	      0.96757331	     -0.20961225	     36.05889421	    -15.30472854	    -13.72540773	      5.45821734	    -18.68056405	     -3.19158726	      0.00000000	     15.02409564	      3.15984237	     -1.08340546	     27.06350413	     12.51390032	      4.87935392	      0.00000000	    -24.15580826	     -5.81285274	      0.01848090	     39.11695406	      6.98210734	     67.73545102	    120.68048622	     96.02244964	     56.38212718	     -1.61869121	     74.57175184	    127.25327132	     75.13137613
      5.48333330	      0.98065081	     -2.58329336	     10.68804175	      0.11927258	      0.96954949	     -0.20951725	     35.58380585	    -15.18319649	    -13.40362165	      5.32144723	    -18.74194377	     -3.22807601	      0.00000000	     14.35497106	      3.00680199	     -1.61186933	     26.43723717	     11.70635012	      5.62971177	      0.00000000	    -24.20424897	     -5.84221007	      0.03673783	     38.61939937	      7.07503409	     66.91933309	    120.48224920	     95.77230472	     55.56999695	     -1.81613942	     73.84605271	    126.97907848	     74.91113510
      5.50000000	      1.06593077	     -2.56758532	     10.70996897	      0.11873346	      0.96769875	     -0.20871688	     35.62376843	    -15.09704448	    -13.46718309	      5.24006258	    -18.65600103	     -3.26243856	      0.00000000	     14.34082367	      2.96350547	     -1.59506712	     26.46779489	     11.66019210	      5.68350735	      0.00000000	    -24.21057497	     -6.00641309	      0.17033957	     38.61652791	      7.10923678	     66.96248780	    120.53763851	     95.74808109	     55.46304573	     -1.88774585	     73.79571613	    126.99109602	     74.88890402
      5.51666670	      1.08525640	     -2.60342920	     10.79887151	      0.12010863	      0.96723234	     -0.20857416	     35.61271271	    -14.99709556	    -13.45496894	      5.32720835	    -18.63788457	     -3.25420106	      0.00000000	     14.28473303	      2.83774033	     -1.59559249	     26.43296746	     11.65313123	      5.68175727	      0.00000000	    -24.14856684	     -6.12155275	      0.20571169	     38.62200542	      7.11721449	     66.98223218	    120.56042794	     95.74170993	     55.41976761	     -1.89988202	     73.77069026	    127.00465234	     74.88254731
      5.53333330	      1.16988011	     -2.50924724	     10.35429509	      0.11941571	      0.96736864	     -0.20798564	     35.90246744	    -14.78005813	    -13.14792227	      5.36687934	    -18.01262879	     -2.85776079	      0.00000000	     14.22268006	      2.76033793	     -2.21469687	     26.49535370	     11.95532735	      5.90416740	      0.00000000	    -24.04691352	     -6.47649797	      0.51524684	     38.67395446	      6.97826328	     67.26943361	    121.06655640	     95.57343883	     54.90671818	     -1.90755437	     72.93618564	    127.00363534	     74.71136523
      5.55000000	      1.17466614	     -2.53799024	     10.39551051	      0.12207717	      0.96739446	     -0.20822287	     35.86392373	    -14.76555036	    -13.11277013	      5.27744779	    -17.91879121	     -2.82031225	      0.00000000	     14.05570203	      2.70272512	     -2.15213892	     26.30096153	     12.08672995	      5.92585433	      0.00000000	    -23.74028304	     -6.57820872	      0.50757754	     38.71330859	      6.99628983	     67.23381385	    121.07067631	     95.54712091	     54.91543478	     -1.84460005	     72.85645872	    127.05702342	     74.69148112
      5.56666670	      1.25218106	     -2.53052926	     10.34814155	      0.12022525	      0.96901210	     -0.20788672	     35.86243475	    -14.76842734	    -13.14032830	      5.37785023	    -17.90583874	     -2.81679762	      0.00000000	     13.98631544	      2.66677901	     -2.14845739	     26.29896036	     12.10424822	      5.96052742	      0.00000000	    -23.60206302	     -6.65889753	      0.50435947	     38.71653116	      7.01266476	     67.23649668	    121.09998689	     95.53535054	     54.90347622	     -1.81915319	     72.79725957	    127.07562107	     74.67988051
      5.58333330	      1.34058799	     -2.57513564	     10.30037527	      0.12164482	      0.97047424	     -0.20838056	     35.84317553	    -14.76680280	    -13.15694837	      5.60016854	    -17.91464708	     -2.82723547	      0.00000000	     13.82171439	      2.55614308	     -2.13893998	     26.35691328	     12.04895866	      5.99248454	      0.00000000	    -23.39324874	     -6.71878065	      0.48303558	     38.73582933	      7.03397063	     67.24565575	    121.15409233	     95.52722041	     54.91100034	     -1.78066024	     72.72876431	    127.08796155	     74.66967800
      5.60000000	      1.48352515	     -2.46076364	     10.27813353	      0.12335488	      0.97237543	     -0.20819541	     35.64970317	    -14.87735037	    -13.21790814	      5.59549494	    -17.70162239	     -2.69401774	      0.00000000	     13.28474341	      2.54780453	     -2.40069807	     25.95935614	     11.56569069	      6.27750125	      0.00000000	    -23.26656070	     -7.01333631	      0.36233040	     38.84246577	      6.97691876	     67.16079033	    121.53190729	     95.38588476	     54.71845845	     -1.81380121	     71.83517621	    126.74900865	     74.49314210
      5.61666670	      1.74579837	     -2.64402843	     10.23019607	      0.12420834	      0.97259636	     -0.20785155	     35.30292724	    -14.64945713	    -13.31059095	      5.68364013	    -17.74564405	     -2.62733542	      0.00000000	     12.94629870	      2.27922523	     -2.41473949	     25.88188719	     11.57110297	      6.21500376	      0.00000000	    -23.26999726	     -6.79079066	      0.39546140	     38.99760819	      6.92699099	     67.17016856	    121.61344097	     95.24610645	     54.73471690	     -1.73423675	     71.35624286	    126.50679493	     74.33770549
      5.63333330	      1.81569757	     -2.67627447	     10.21531454	      0.12497910	      0.97290489	     -0.20787377	     35.26115378	    -14.67899265	    -13.32026373	      5.76497819	    -17.77506999	     -2.62303028	      0.00000000	     12.82779730	      2.21194652	     -2.42089362	     25.92608975	     11.54245989	      6.21189066	      0.00000000	    -23.13134100	     -6.81668654	      0.35244251	     38.98120551	      6.93949594	     67.19701515	    121.64326922	     95.23996631	     54.74641705	     -1.69141422	     71.33973892	    126.51886723	     74.33005683
      5.65000000	      1.89489441	     -2.71002543	     10.21140625	      0.12652150	      0.97267153	     -0.20777656	     35.28752195	    -14.72983857	    -13.32573354	      5.79680289	    -17.76295094	     -2.63186405	      0.00000000	     12.64170570	      2.13167819	     -2.39839099	     25.99103961	     11.51833401	      6.21189239	      0.00000000	    -23.00785103	     -6.83530858	      0.31381492	     38.97328362	      6.94922926	     67.22627287	    121.67882830	     95.23360676	     54.74175218	     -1.64075744	     71.32381433	    126.53226031	     74.32169696
      5.66666670	      1.95502623	     -2.74034530	     10.29842128	      0.12711446	      0.97296748	     -0.20782733	     35.20905315	    -14.82237239	    -13.23020255	      5.77598788	    -17.69355174	     -2.59483317	      0.00000000	     12.48856823	      2.11198109	     -2.36198015	     25.92679730	     11.56044685	      6.21473299	      0.00000000	    -22.85196933	     -6.82866242	      0.23871188	     38.98058948	      6.95785603	     67.25798489	    121.72293680	     95.22503553	     54.73813958	     -1.54401490	     71.30410257	    126.54482401	     74.30986798
      5.68333330	      2.34985706	     -2.76944469	     10.33715069	      0.12923477	      0.97564985	     -0.20787880	     34.58675283	    -14.76077807	    -13.20022913	      5.49536230	    -17.22165434	     -2.21038348	      0.00000000	     11.84033216	      2.13453342	     -1.72467979	     25.64612922	     11.61197794	      6.47303760	      0.00000000	    -23.24961501	     -6.81371854	      0.02229939	     38.95796643	      6.89793807	     67.59325116	    122.03491859	     95.07867757	     54.44349144	     -1.33776386	     71.10766988	    126.33544700	     74.12072159
      5.70000000	      2.43709162	     -2.80134849	     10.22723137	      0.12972040	      0.97345702	     -0.20770753	     34.62531340	    -14.74710676	    -13.20145194	      5.43501838	    -17.21348572	     -2.19528750	      0.00000000	     11.73194056	      2.14101442	     -1.64140448	     25.74348646	     11.55684604	      6.51660561	      0.00000000	    -23.15442805	     -6.75905763	      0.01506000	     38.96418297	      6.91917192	     67.59655963	    122.05461207	     95.07198885	     54.46482342	     -1.30667189	     71.10406607	    126.35254701	     74.11384518
